# xmcd CD database file
#
# Track frame offsets:
#	150
#	21765
#	50012
#	63750
#	75617
#	95517
#	123085
#	136922
#	150850
#	160917
#	176757
#	193392
#	206482
#	216092
#	231547
#	240290
#	254945
#	265295
#	286682
#	299125
#	315335
#
# Disc length: 4449 seconds
#
# Revision: 1
# Processed by: cddbd v1.5PL3 Copyright (c) Steve Scherf et al.
# Submitted via: CDex 1.51
#
DISCID=32115f15
DTITLE=Judy Garland - Miss Show Business - Judy
DYEAR=2002
DGENRE=Jazz
TTITLE0=Medley: a. This Is The Time Of The Evening b. While We're Young
TTITLE1=Medley: a. You Made Me Love You b. For Me And My Gal c. The Boy Next Door d. The Trolley Song
TTITLE2=A Pretty Girl Milking Her Cow
TTITLE3=Rock-a-bye Your Baby With A Dixie Melody
TTITLE4=Happiness Is A Thing Called Joe
TTITLE5=Judy At The Palace: a.Shine On Harvest Moon b. Some Of These Days c. I Don't Care
TTITLE6=Carolina In The Morning
TTITLE7=Danny Boy
TTITLE8=After You've Gone
TTITLE9=Over The Rainbow
TTITLE10=Come Rain Or Come Shine
TTITLE11=Just Imagine
TTITLE12=I Feel A Song Coming On
TTITLE13=Last Night When We Were Young
TTITLE14=Life Is Just A Bowl Of Cherries
TTITLE15=April Showers
TTITLE16=Maybe I'll Come Back
TTITLE17=Dirty Hands, Dirty Face
TTITLE18=Lucky Day
TTITLE19=Memories Of You
TTITLE20=Any Place I Hang My Hat Is Home
EXTD=YEAR: 2002
EXTT0=
EXTT1=
EXTT2=
EXTT3=
EXTT4=
EXTT5=
EXTT6=
EXTT7=
EXTT8=
EXTT9=
EXTT10=
EXTT11=
EXTT12=
EXTT13=
EXTT14=
EXTT15=
EXTT16=
EXTT17=
EXTT18=
EXTT19=
EXTT20=
PLAYORDER=
